<svg xmlns="http://www.w3.org/2000/svg" viewBox="0 0 256 256"><defs><linearGradient id="a" x2="1" y2="1"><stop stop-color="#ef9fbc"/><stop offset="1" stop-color="#956ac9"/></linearGradient></defs><rect x="8" y="8" width="240" height="240" rx="65" fill="url(#a)"/><path d="M66 59h101a31 31 0 0 1 31 31v61a31 31 0 0 1-31 31h-49l-41 25 5-25H66a31 31 0 0 1-31-31V90a31 31 0 0 1 31-31" fill="white"/><path d="M166 72l9 23 24 8-24 9-9 23-9-23-23-9 23-8z" fill="#aa74b3"/><path d="M66 130q29 26 57 0" fill="none" stroke="#aa74b3" stroke-width="12" stroke-linecap="round"/></svg>